<mxfile host="app.diagrams.net" agent="Mozilla/5.0 (Windows NT 10.0; Win64; x64) AppleWebKit/537.36 (KHTML, like Gecko) Chrome/135.0.0.0 Safari/537.36" version="26.2.14">
  <diagram name="任务生命周期流程" id="E-ch3eXGfFFp87lSE_xn">
    <mxGraphModel dx="843" dy="585" grid="0" gridSize="10" guides="1" tooltips="1" connect="1" arrows="1" fold="1" page="0" pageScale="1" pageWidth="850" pageHeight="1100" math="0" shadow="0">
      <root>
        <mxCell id="0" />
        <mxCell id="1" parent="0" />
        <mxCell id="e6zgIH32xvxdO4nqBeIh-80" value="Leader Server" style="swimlane;fontStyle=1;align=center;verticalAlign=top;childLayout=stackLayout;horizontal=1;startSize=30;horizontalStack=0;resizeParent=1;resizeParentMax=0;resizeLast=0;collapsible=0;marginBottom=0;html=1;fillColor=#f8cecc;strokeColor=#b85450;" vertex="1" parent="1">
          <mxGeometry x="170" y="70" width="180" height="110" as="geometry" />
        </mxCell>
        <mxCell id="e6zgIH32xvxdO4nqBeIh-81" value="Scheduler&#xa;(scheduler.go)" style="rounded=1;whiteSpace=wrap;html=1;fontSize=12;glass=0;strokeWidth=1;shadow=0;fillColor=#dae8fc;strokeColor=#6c8ebf;" vertex="1" parent="e6zgIH32xvxdO4nqBeIh-80">
          <mxGeometry y="30" width="180" height="40" as="geometry" />
        </mxCell>
        <mxCell id="e6zgIH32xvxdO4nqBeIh-82" value="gRPC Client&#xa;(grpc_agent.go)" style="rounded=1;whiteSpace=wrap;html=1;fontSize=12;glass=0;strokeWidth=1;shadow=0;fillColor=#dae8fc;strokeColor=#6c8ebf;" vertex="1" parent="e6zgIH32xvxdO4nqBeIh-80">
          <mxGeometry y="70" width="180" height="40" as="geometry" />
        </mxCell>
        <mxCell id="e6zgIH32xvxdO4nqBeIh-83" value="Raft状态机" style="swimlane;fontStyle=1;align=center;verticalAlign=top;childLayout=stackLayout;horizontal=1;startSize=30;horizontalStack=0;resizeParent=1;resizeParentMax=0;resizeLast=0;collapsible=0;marginBottom=0;html=1;fillColor=#e1d5e7;strokeColor=#9673a6;" vertex="1" parent="1">
          <mxGeometry x="480" y="70" width="180" height="110" as="geometry" />
        </mxCell>
        <mxCell id="e6zgIH32xvxdO4nqBeIh-84" value="Apply日志&#xa;(fsm.go)" style="rounded=1;whiteSpace=wrap;html=1;fontSize=12;glass=0;strokeWidth=1;shadow=0;fillColor=#d5e8d4;strokeColor=#82b366;" vertex="1" parent="e6zgIH32xvxdO4nqBeIh-83">
          <mxGeometry y="30" width="180" height="40" as="geometry" />
        </mxCell>
        <mxCell id="e6zgIH32xvxdO4nqBeIh-85" value="持久化存储&#xa;(store.go)" style="rounded=1;whiteSpace=wrap;html=1;fontSize=12;glass=0;strokeWidth=1;shadow=0;fillColor=#d5e8d4;strokeColor=#82b366;" vertex="1" parent="e6zgIH32xvxdO4nqBeIh-83">
          <mxGeometry y="70" width="180" height="40" as="geometry" />
        </mxCell>
        <mxCell id="e6zgIH32xvxdO4nqBeIh-86" value="Agent节点" style="swimlane;fontStyle=1;align=center;verticalAlign=top;childLayout=stackLayout;horizontal=1;startSize=30;horizontalStack=0;resizeParent=1;resizeParentMax=0;resizeLast=0;collapsible=0;marginBottom=0;html=1;fillColor=#fff2cc;strokeColor=#d6b656;" vertex="1" parent="1">
          <mxGeometry x="170" y="320" width="180" height="154" as="geometry" />
        </mxCell>
        <mxCell id="e6zgIH32xvxdO4nqBeIh-87" value="gRPC Server&#xa;(agent.go)" style="rounded=1;whiteSpace=wrap;html=1;fontSize=12;glass=0;strokeWidth=1;shadow=0;fillColor=#ffe6cc;strokeColor=#d79b00;" vertex="1" parent="e6zgIH32xvxdO4nqBeIh-86">
          <mxGeometry y="30" width="180" height="40" as="geometry" />
        </mxCell>
        <mxCell id="e6zgIH32xvxdO4nqBeIh-88" value="执行器选择&#xa;(plugin/executor.go)" style="rounded=1;whiteSpace=wrap;html=1;fontSize=12;glass=0;strokeWidth=1;shadow=0;fillColor=#ffe6cc;strokeColor=#d79b00;" vertex="1" parent="e6zgIH32xvxdO4nqBeIh-86">
          <mxGeometry y="70" width="180" height="40" as="geometry" />
        </mxCell>
        <mxCell id="e6zgIH32xvxdO4nqBeIh-89" value="执行结果&#xa;(execution.go)" style="rounded=1;whiteSpace=wrap;html=1;fontSize=12;glass=0;strokeWidth=1;shadow=0;fillColor=#ffe6cc;strokeColor=#d79b00;" vertex="1" parent="e6zgIH32xvxdO4nqBeIh-86">
          <mxGeometry y="110" width="180" height="44" as="geometry" />
        </mxCell>
        <mxCell id="e6zgIH32xvxdO4nqBeIh-90" value="Serf集群管理" style="swimlane;fontStyle=1;align=center;verticalAlign=top;childLayout=stackLayout;horizontal=1;startSize=30;horizontalStack=0;resizeParent=1;resizeParentMax=0;resizeLast=0;collapsible=0;marginBottom=0;html=1;fillColor=#f5f5f5;strokeColor=#666666;fontColor=#333333;" vertex="1" parent="1">
          <mxGeometry x="486" y="202" width="180" height="80" as="geometry" />
        </mxCell>
        <mxCell id="e6zgIH32xvxdO4nqBeIh-91" value="健康Agent列表和标签&#xa;(serf.go)" style="rounded=1;whiteSpace=wrap;html=1;fontSize=12;glass=0;strokeWidth=1;shadow=0;fillColor=#f5f5f5;strokeColor=#666666;fontColor=#333333;" vertex="1" parent="e6zgIH32xvxdO4nqBeIh-90">
          <mxGeometry y="30" width="180" height="50" as="geometry" />
        </mxCell>
        <mxCell id="e6zgIH32xvxdO4nqBeIh-92" value="1. 触发任务&#xa;(根据Cron表达式)" style="endArrow=classic;html=1;rounded=0;entryX=0.25;entryY=0;entryDx=0;entryDy=0;verticalAlign=top;fontSize=10;" edge="1" parent="1" target="e6zgIH32xvxdO4nqBeIh-81">
          <mxGeometry x="-0.5529" y="34" width="50" height="50" relative="1" as="geometry">
            <mxPoint x="109" y="80" as="sourcePoint" />
            <mxPoint x="130" y="100" as="targetPoint" />
            <Array as="points">
              <mxPoint x="129" y="80" />
              <mxPoint x="152" y="86" />
            </Array>
            <mxPoint x="-32" y="22" as="offset" />
          </mxGeometry>
        </mxCell>
        <mxCell id="e6zgIH32xvxdO4nqBeIh-93" value="2. 查询健康节点&#xa;(根据任务标签)" style="endArrow=classic;html=1;rounded=0;exitX=1;exitY=1;exitDx=0;exitDy=0;entryX=0;entryY=0.5;entryDx=0;entryDy=0;fontSize=10;" edge="1" parent="1" source="e6zgIH32xvxdO4nqBeIh-82" target="e6zgIH32xvxdO4nqBeIh-91">
          <mxGeometry x="-0.4651" y="10" width="50" height="50" relative="1" as="geometry">
            <mxPoint as="offset" />
          </mxGeometry>
        </mxCell>
        <mxCell id="e6zgIH32xvxdO4nqBeIh-94" value="3. 准备分发任务" style="endArrow=classic;html=1;rounded=0;exitX=0.5;exitY=1;exitDx=0;exitDy=0;entryX=0.5;entryY=0;entryDx=0;entryDy=0;fontSize=10;" edge="1" parent="1" source="e6zgIH32xvxdO4nqBeIh-81" target="e6zgIH32xvxdO4nqBeIh-82">
          <mxGeometry x="0.2" y="-10" width="50" height="50" relative="1" as="geometry">
            <mxPoint as="offset" />
          </mxGeometry>
        </mxCell>
        <mxCell id="e6zgIH32xvxdO4nqBeIh-95" value="4. gRPC发送任务指令" style="endArrow=classic;html=1;rounded=0;exitX=0.5;exitY=1;exitDx=0;exitDy=0;entryX=0.5;entryY=0;entryDx=0;entryDy=0;fontSize=10;" edge="1" parent="1" source="e6zgIH32xvxdO4nqBeIh-82" target="e6zgIH32xvxdO4nqBeIh-87">
          <mxGeometry x="-0.2" y="10" width="50" height="50" relative="1" as="geometry">
            <mxPoint as="offset" />
          </mxGeometry>
        </mxCell>
        <mxCell id="e6zgIH32xvxdO4nqBeIh-96" value="5. 选择合适的执行器" style="endArrow=classic;html=1;rounded=0;exitX=0.5;exitY=1;exitDx=0;exitDy=0;entryX=0.5;entryY=0;entryDx=0;entryDy=0;fontSize=10;" edge="1" parent="1" source="e6zgIH32xvxdO4nqBeIh-87" target="e6zgIH32xvxdO4nqBeIh-88">
          <mxGeometry x="0.2" y="10" width="50" height="50" relative="1" as="geometry">
            <mxPoint as="offset" />
          </mxGeometry>
        </mxCell>
        <mxCell id="e6zgIH32xvxdO4nqBeIh-97" value="6. 执行任务并收集结果" style="endArrow=classic;html=1;rounded=0;exitX=0.5;exitY=1;exitDx=0;exitDy=0;entryX=0.5;entryY=0;entryDx=0;entryDy=0;fontSize=10;" edge="1" parent="1" source="e6zgIH32xvxdO4nqBeIh-88" target="e6zgIH32xvxdO4nqBeIh-89">
          <mxGeometry x="0.2" y="10" width="50" height="50" relative="1" as="geometry">
            <mxPoint as="offset" />
          </mxGeometry>
        </mxCell>
        <mxCell id="e6zgIH32xvxdO4nqBeIh-98" value="7. gRPC返回执行结果" style="endArrow=classic;html=1;rounded=0;exitX=0.75;exitY=0;exitDx=0;exitDy=0;entryX=0.75;entryY=1;entryDx=0;entryDy=0;fontSize=10;" edge="1" parent="1" source="e6zgIH32xvxdO4nqBeIh-87" target="e6zgIH32xvxdO4nqBeIh-82">
          <mxGeometry x="-0.2" y="-10" width="50" height="50" relative="1" as="geometry">
            <mxPoint as="offset" />
          </mxGeometry>
        </mxCell>
        <mxCell id="e6zgIH32xvxdO4nqBeIh-99" value="8. 通过Raft提交执行结果" style="endArrow=classic;html=1;rounded=0;exitX=1;exitY=0.5;exitDx=0;exitDy=0;entryX=0;entryY=0.5;entryDx=0;entryDy=0;fontSize=10;" edge="1" parent="1" source="e6zgIH32xvxdO4nqBeIh-82" target="e6zgIH32xvxdO4nqBeIh-84">
          <mxGeometry x="-0.0244" y="10" width="50" height="50" relative="1" as="geometry">
            <mxPoint as="offset" />
          </mxGeometry>
        </mxCell>
        <mxCell id="e6zgIH32xvxdO4nqBeIh-100" value="9. 持久化存储结果" style="endArrow=classic;html=1;rounded=0;exitX=0.5;exitY=1;exitDx=0;exitDy=0;entryX=0.5;entryY=0;entryDx=0;entryDy=0;fontSize=10;" edge="1" parent="1" source="e6zgIH32xvxdO4nqBeIh-84" target="e6zgIH32xvxdO4nqBeIh-85">
          <mxGeometry x="0.2" y="10" width="50" height="50" relative="1" as="geometry">
            <mxPoint as="offset" />
          </mxGeometry>
        </mxCell>
        <mxCell id="e6zgIH32xvxdO4nqBeIh-101" value="Pulse系统任务生命周期流程图" style="text;html=1;strokeColor=none;fillColor=none;align=center;verticalAlign=middle;whiteSpace=wrap;rounded=0;fontSize=14;fontStyle=1" vertex="1" parent="1">
          <mxGeometry x="260" y="5" width="280" height="30" as="geometry" />
        </mxCell>
      </root>
    </mxGraphModel>
  </diagram>
</mxfile>
